<svg xmlns="http://www.w3.org/2000/svg" height="60" width="240"><defs><pattern height="4" id="5wby2wtqm45" patternUnits="userSpaceOnUse" width="4" x="0" y="0"><g><rect fill="transparent" height="4" width="4"></rect><circle cx="1" cy="1" fill="#098551" fill-opacity="0.2" r="1"></circle></g></pattern></defs><g><path d="M2,28.346L2.492,27.14C2.983,25.934,3.967,23.521,4.95,23.098C5.933,22.676,6.917,24.243,7.9,25.875C8.883,27.507,9.867,29.205,10.85,28.409C11.833,27.612,12.817,24.322,13.8,22.524C14.783,20.727,15.767,20.423,16.75,21.606C17.733,22.789,18.717,25.459,19.7,28.911C20.683,32.363,21.667,36.598,22.65,35.387C23.633,34.176,24.617,27.518,25.6,26.958C26.583,26.399,27.567,31.937,28.55,32.972C29.533,34.007,30.517,30.537,31.5,28.918C32.483,27.298,33.467,27.529,34.45,32.088C35.433,36.648,36.417,45.534,37.4,50.366C38.383,55.198,39.367,55.975,40.35,51.297C41.333,46.62,42.317,36.489,43.3,33.928C44.283,31.368,45.267,36.379,46.25,36.695C47.233,37.012,48.217,32.633,49.2,32.156C50.183,31.679,51.167,35.103,52.15,35.426C53.133,35.75,54.117,32.972,55.1,33.834C56.083,34.697,57.067,39.199,58.05,38.579C59.033,37.958,60.017,32.214,61,31.427C61.983,30.64,62.967,34.809,63.95,35.092C64.933,35.376,65.917,31.774,66.9,32.343C67.883,32.913,68.867,37.655,69.85,36.951C70.833,36.246,71.817,30.096,72.8,29.29C73.783,28.483,74.767,33.019,75.75,36.055C76.733,39.09,77.717,40.624,78.7,39.536C79.683,38.447,80.667,34.736,81.65,35.653C82.633,36.569,83.617,42.112,84.6,42.829C85.583,43.547,86.567,39.439,87.55,38.253C88.533,37.067,89.517,38.804,90.5,38.257C91.483,37.71,92.467,34.88,93.45,37.083C94.433,39.286,95.417,46.521,96.4,45.961C97.383,45.4,98.367,37.043,99.35,32.549C100.333,28.055,101.317,27.425,102.3,30.424C103.283,33.422,104.267,40.048,105.25,44.877C106.233,49.707,107.217,52.739,108.2,49.347C109.183,45.955,110.167,36.14,111.15,33.074C112.133,30.007,113.117,33.69,114.1,34.692C115.083,35.693,116.067,34.014,117.05,34.558C118.033,35.103,119.017,37.872,120,37.609C120.983,37.346,121.967,34.05,122.95,33.928C123.933,33.807,124.917,36.86,125.9,41.401C126.883,45.942,127.867,51.971,128.85,49.092C129.833,46.214,130.817,34.427,131.8,30.653C132.783,26.879,133.767,31.116,134.75,31.86C135.733,32.605,136.717,29.855,137.7,29.794C138.683,29.733,139.667,32.361,140.65,31.879C141.633,31.396,142.617,27.803,143.6,27.307C144.583,26.811,145.567,29.413,146.55,27.003C147.533,24.593,148.517,17.172,149.5,17.703C150.483,18.234,151.467,26.717,152.45,30.037C153.433,33.357,154.417,31.514,155.4,33.01C156.383,34.505,157.367,39.339,158.35,38.871C159.333,38.404,160.317,32.636,161.3,30.921C162.283,29.206,163.267,31.545,164.25,30.32C165.233,29.094,166.217,24.305,167.2,18.991C168.183,13.677,169.167,7.839,170.15,9.49C171.133,11.142,172.117,20.285,173.1,23.064C174.083,25.844,175.067,22.261,176.05,18.779C177.033,15.296,178.017,11.913,179,13.51C179.983,15.108,180.967,21.685,181.95,23.761C182.933,25.837,183.917,23.411,184.9,26.684C185.883,29.957,186.867,38.928,187.85,38.546C188.833,38.164,189.817,28.427,190.8,28.078C191.783,27.729,192.767,36.768,193.75,37.109C194.733,37.449,195.717,29.092,196.7,30.845C197.683,32.599,198.667,44.465,199.65,44.539C200.633,44.614,201.617,32.897,202.6,27.542C203.583,22.186,204.567,23.191,205.55,26.647C206.533,30.103,207.517,36.009,208.5,35.934C209.483,35.859,210.467,29.803,211.45,29.976C212.433,30.149,213.417,36.551,214.4,35.669C215.383,34.787,216.367,26.622,217.35,24.348C218.333,22.073,219.317,25.689,220.3,24.517C221.283,23.344,222.267,17.383,223.25,16.889C224.233,16.395,225.217,21.367,226.2,25.111C227.183,28.854,228.167,31.369,229.15,30.743C230.133,30.118,231.117,26.351,232.1,25.853C233.083,25.356,234.067,28.127,234.558,29.513L235.05,30.899" fill="transparent" stroke="#098551" stroke-linecap="round" stroke-linejoin="round" stroke-width="2"></path><path d="M2,28.346L2.492,27.14C2.983,25.934,3.967,23.521,4.95,23.098C5.933,22.676,6.917,24.243,7.9,25.875C8.883,27.507,9.867,29.205,10.85,28.409C11.833,27.612,12.817,24.322,13.8,22.524C14.783,20.727,15.767,20.423,16.75,21.606C17.733,22.789,18.717,25.459,19.7,28.911C20.683,32.363,21.667,36.598,22.65,35.387C23.633,34.176,24.617,27.518,25.6,26.958C26.583,26.399,27.567,31.937,28.55,32.972C29.533,34.007,30.517,30.537,31.5,28.918C32.483,27.298,33.467,27.529,34.45,32.088C35.433,36.648,36.417,45.534,37.4,50.366C38.383,55.198,39.367,55.975,40.35,51.297C41.333,46.62,42.317,36.489,43.3,33.928C44.283,31.368,45.267,36.379,46.25,36.695C47.233,37.012,48.217,32.633,49.2,32.156C50.183,31.679,51.167,35.103,52.15,35.426C53.133,35.75,54.117,32.972,55.1,33.834C56.083,34.697,57.067,39.199,58.05,38.579C59.033,37.958,60.017,32.214,61,31.427C61.983,30.64,62.967,34.809,63.95,35.092C64.933,35.376,65.917,31.774,66.9,32.343C67.883,32.913,68.867,37.655,69.85,36.951C70.833,36.246,71.817,30.096,72.8,29.29C73.783,28.483,74.767,33.019,75.75,36.055C76.733,39.09,77.717,40.624,78.7,39.536C79.683,38.447,80.667,34.736,81.65,35.653C82.633,36.569,83.617,42.112,84.6,42.829C85.583,43.547,86.567,39.439,87.55,38.253C88.533,37.067,89.517,38.804,90.5,38.257C91.483,37.71,92.467,34.88,93.45,37.083C94.433,39.286,95.417,46.521,96.4,45.961C97.383,45.4,98.367,37.043,99.35,32.549C100.333,28.055,101.317,27.425,102.3,30.424C103.283,33.422,104.267,40.048,105.25,44.877C106.233,49.707,107.217,52.739,108.2,49.347C109.183,45.955,110.167,36.14,111.15,33.074C112.133,30.007,113.117,33.69,114.1,34.692C115.083,35.693,116.067,34.014,117.05,34.558C118.033,35.103,119.017,37.872,120,37.609C120.983,37.346,121.967,34.05,122.95,33.928C123.933,33.807,124.917,36.86,125.9,41.401C126.883,45.942,127.867,51.971,128.85,49.092C129.833,46.214,130.817,34.427,131.8,30.653C132.783,26.879,133.767,31.116,134.75,31.86C135.733,32.605,136.717,29.855,137.7,29.794C138.683,29.733,139.667,32.361,140.65,31.879C141.633,31.396,142.617,27.803,143.6,27.307C144.583,26.811,145.567,29.413,146.55,27.003C147.533,24.593,148.517,17.172,149.5,17.703C150.483,18.234,151.467,26.717,152.45,30.037C153.433,33.357,154.417,31.514,155.4,33.01C156.383,34.505,157.367,39.339,158.35,38.871C159.333,38.404,160.317,32.636,161.3,30.921C162.283,29.206,163.267,31.545,164.25,30.32C165.233,29.094,166.217,24.305,167.2,18.991C168.183,13.677,169.167,7.839,170.15,9.49C171.133,11.142,172.117,20.285,173.1,23.064C174.083,25.844,175.067,22.261,176.05,18.779C177.033,15.296,178.017,11.913,179,13.51C179.983,15.108,180.967,21.685,181.95,23.761C182.933,25.837,183.917,23.411,184.9,26.684C185.883,29.957,186.867,38.928,187.85,38.546C188.833,38.164,189.817,28.427,190.8,28.078C191.783,27.729,192.767,36.768,193.75,37.109C194.733,37.449,195.717,29.092,196.7,30.845C197.683,32.599,198.667,44.465,199.65,44.539C200.633,44.614,201.617,32.897,202.6,27.542C203.583,22.186,204.567,23.191,205.55,26.647C206.533,30.103,207.517,36.009,208.5,35.934C209.483,35.859,210.467,29.803,211.45,29.976C212.433,30.149,213.417,36.551,214.4,35.669C215.383,34.787,216.367,26.622,217.35,24.348C218.333,22.073,219.317,25.689,220.3,24.517C221.283,23.344,222.267,17.383,223.25,16.889C224.233,16.395,225.217,21.367,226.2,25.111C227.183,28.854,228.167,31.369,229.15,30.743C230.133,30.118,231.117,26.351,232.1,25.853C233.083,25.356,234.067,28.127,234.558,29.513L235.05,30.899L235.05,60L234.558,60C234.067,60,233.083,60,232.1,60C231.117,60,230.133,60,229.15,60C228.167,60,227.183,60,226.2,60C225.217,60,224.233,60,223.25,60C222.267,60,221.283,60,220.3,60C219.317,60,218.333,60,217.35,60C216.367,60,215.383,60,214.4,60C213.417,60,212.433,60,211.45,60C210.467,60,209.483,60,208.5,60C207.517,60,206.533,60,205.55,60C204.567,60,203.583,60,202.6,60C201.617,60,200.633,60,199.65,60C198.667,60,197.683,60,196.7,60C195.717,60,194.733,60,193.75,60C192.767,60,191.783,60,190.8,60C189.817,60,188.833,60,187.85,60C186.867,60,185.883,60,184.9,60C183.917,60,182.933,60,181.95,60C180.967,60,179.983,60,179,60C178.017,60,177.033,60,176.05,60C175.067,60,174.083,60,173.1,60C172.117,60,171.133,60,170.15,60C169.167,60,168.183,60,167.2,60C166.217,60,165.233,60,164.25,60C163.267,60,162.283,60,161.3,60C160.317,60,159.333,60,158.35,60C157.367,60,156.383,60,155.4,60C154.417,60,153.433,60,152.45,60C151.467,60,150.483,60,149.5,60C148.517,60,147.533,60,146.55,60C145.567,60,144.583,60,143.6,60C142.617,60,141.633,60,140.65,60C139.667,60,138.683,60,137.7,60C136.717,60,135.733,60,134.75,60C133.767,60,132.783,60,131.8,60C130.817,60,129.833,60,128.85,60C127.867,60,126.883,60,125.9,60C124.917,60,123.933,60,122.95,60C121.967,60,120.983,60,120,60C119.017,60,118.033,60,117.05,60C116.067,60,115.083,60,114.1,60C113.117,60,112.133,60,111.15,60C110.167,60,109.183,60,108.2,60C107.217,60,106.233,60,105.25,60C104.267,60,103.283,60,102.3,60C101.317,60,100.333,60,99.35,60C98.367,60,97.383,60,96.4,60C95.417,60,94.433,60,93.45,60C92.467,60,91.483,60,90.5,60C89.517,60,88.533,60,87.55,60C86.567,60,85.583,60,84.6,60C83.617,60,82.633,60,81.65,60C80.667,60,79.683,60,78.7,60C77.717,60,76.733,60,75.75,60C74.767,60,73.783,60,72.8,60C71.817,60,70.833,60,69.85,60C68.867,60,67.883,60,66.9,60C65.917,60,64.933,60,63.95,60C62.967,60,61.983,60,61,60C60.017,60,59.033,60,58.05,60C57.067,60,56.083,60,55.1,60C54.117,60,53.133,60,52.15,60C51.167,60,50.183,60,49.2,60C48.217,60,47.233,60,46.25,60C45.267,60,44.283,60,43.3,60C42.317,60,41.333,60,40.35,60C39.367,60,38.383,60,37.4,60C36.417,60,35.433,60,34.45,60C33.467,60,32.483,60,31.5,60C30.517,60,29.533,60,28.55,60C27.567,60,26.583,60,25.6,60C24.617,60,23.633,60,22.65,60C21.667,60,20.683,60,19.7,60C18.717,60,17.733,60,16.75,60C15.767,60,14.783,60,13.8,60C12.817,60,11.833,60,10.85,60C9.867,60,8.883,60,7.9,60C6.917,60,5.933,60,4.95,60C3.967,60,2.983,60,2.492,60L2,60Z" fill="url(#5wby2wtqm45)"></path></g></svg>
