<svg xmlns="http://www.w3.org/2000/svg" height="60" width="240"><defs><pattern height="4" id="xjvb3v3eq3" patternUnits="userSpaceOnUse" width="4" x="0" y="0"><g><rect fill="transparent" height="4" width="4"></rect><circle cx="1" cy="1" fill="#CF202F" fill-opacity="0.2" r="1"></circle></g></pattern></defs><g><path d="M2,16.089L2.492,16.596C2.983,17.102,3.967,18.116,4.95,19.074C5.933,20.033,6.917,20.937,7.9,22.118C8.883,23.299,9.867,24.756,10.85,26.509C11.833,28.261,12.817,30.309,13.8,31.912C14.783,33.515,15.767,34.673,16.75,35.412C17.733,36.15,18.717,36.469,19.7,39.371C20.683,42.273,21.667,47.757,22.65,51.293C23.633,54.828,24.617,56.414,25.6,56.381C26.583,56.348,27.567,54.697,28.55,53.865C29.533,53.033,30.517,53.02,31.5,53.832C32.483,54.643,33.467,56.278,34.45,56.986C35.433,57.694,36.417,57.475,37.4,55.743C38.383,54.01,39.367,50.764,40.35,48.654C41.333,46.544,42.317,45.57,43.3,45.738C44.283,45.907,45.267,47.218,46.25,47.758C47.233,48.299,48.217,48.067,49.2,48.476C50.183,48.885,51.167,49.935,52.15,50.793C53.133,51.651,54.117,52.319,55.1,52.909C56.083,53.5,57.067,54.014,58.05,54.199C59.033,54.384,60.017,54.239,61,54.399C61.983,54.559,62.967,55.025,63.95,55.183C64.933,55.342,65.917,55.193,66.9,54.903C67.883,54.613,68.867,54.181,69.85,54.035C70.833,53.89,71.817,54.03,72.8,53.944C73.783,53.858,74.767,53.547,75.75,53.527C76.733,53.508,77.717,53.781,78.7,54.336C79.683,54.89,80.667,55.726,81.65,55.987C82.633,56.249,83.617,55.935,84.6,55.878C85.583,55.82,86.567,56.018,87.55,55.906C88.533,55.795,89.517,55.373,90.5,55.208C91.483,55.043,92.467,55.134,93.45,55.083C94.433,55.031,95.417,54.838,96.4,55.056C97.383,55.274,98.367,55.903,99.35,55.887C100.333,55.872,101.317,55.213,102.3,54.749C103.283,54.286,104.267,54.017,105.25,53.727C106.233,53.437,107.217,53.125,108.2,51.951C109.183,50.777,110.167,48.741,111.15,47.583C112.133,46.424,113.117,46.143,114.1,45.695C115.083,45.247,116.067,44.633,117.05,44.677C118.033,44.722,119.017,45.426,120,45.701C120.983,45.977,121.967,45.825,122.95,45.9C123.933,45.976,124.917,46.28,125.9,45.609C126.883,44.938,127.867,43.293,128.85,42.661C129.833,42.028,130.817,42.408,131.8,42.123C132.783,41.838,133.767,40.887,134.75,40.161C135.733,39.434,136.717,38.933,137.7,38.822C138.683,38.711,139.667,38.991,140.65,39.128C141.633,39.265,142.617,39.258,143.6,39.436C144.583,39.613,145.567,39.974,146.55,40.762C147.533,41.55,148.517,42.766,149.5,43.452C150.483,44.138,151.467,44.295,152.45,44.145C153.433,43.995,154.417,43.538,155.4,43.494C156.383,43.449,157.367,43.817,158.35,43.893C159.333,43.969,160.317,43.754,161.3,43.705C162.283,43.657,163.267,43.775,164.25,43.664C165.233,43.553,166.217,43.212,167.2,42.756C168.183,42.3,169.167,41.729,170.15,41.095C171.133,40.461,172.117,39.764,173.1,39.281C174.083,38.798,175.067,38.53,176.05,38.079C177.033,37.627,178.017,36.993,179,36.099C179.983,35.205,180.967,34.052,181.95,32.727C182.933,31.402,183.917,29.906,184.9,28.772C185.883,27.637,186.867,26.865,187.85,26.831C188.833,26.798,189.817,27.503,190.8,27.405C191.783,27.306,192.767,26.404,193.75,25.864C194.733,25.323,195.717,25.145,196.7,25.581C197.683,26.016,198.667,27.067,199.65,25.55C200.633,24.034,201.617,19.952,202.6,17.646C203.583,15.34,204.567,14.812,205.55,14.521C206.533,14.231,207.517,14.18,208.5,13.806C209.483,13.432,210.467,12.735,211.45,11.092C212.433,9.449,213.417,6.86,214.4,5.187C215.383,3.513,216.367,2.757,217.35,2.765C218.333,2.773,219.317,3.546,220.3,3.678C221.283,3.81,222.267,3.302,223.25,3.168C224.233,3.034,225.217,3.274,226.2,3.453C227.183,3.633,228.167,3.751,229.15,3.662C230.133,3.572,231.117,3.275,232.1,3.075C233.083,2.876,234.067,2.773,234.558,2.722L235.05,2.671" fill="transparent" stroke="#CF202F" stroke-linecap="round" stroke-linejoin="round" stroke-width="2"></path><path d="M2,16.089L2.492,16.596C2.983,17.102,3.967,18.116,4.95,19.074C5.933,20.033,6.917,20.937,7.9,22.118C8.883,23.299,9.867,24.756,10.85,26.509C11.833,28.261,12.817,30.309,13.8,31.912C14.783,33.515,15.767,34.673,16.75,35.412C17.733,36.15,18.717,36.469,19.7,39.371C20.683,42.273,21.667,47.757,22.65,51.293C23.633,54.828,24.617,56.414,25.6,56.381C26.583,56.348,27.567,54.697,28.55,53.865C29.533,53.033,30.517,53.02,31.5,53.832C32.483,54.643,33.467,56.278,34.45,56.986C35.433,57.694,36.417,57.475,37.4,55.743C38.383,54.01,39.367,50.764,40.35,48.654C41.333,46.544,42.317,45.57,43.3,45.738C44.283,45.907,45.267,47.218,46.25,47.758C47.233,48.299,48.217,48.067,49.2,48.476C50.183,48.885,51.167,49.935,52.15,50.793C53.133,51.651,54.117,52.319,55.1,52.909C56.083,53.5,57.067,54.014,58.05,54.199C59.033,54.384,60.017,54.239,61,54.399C61.983,54.559,62.967,55.025,63.95,55.183C64.933,55.342,65.917,55.193,66.9,54.903C67.883,54.613,68.867,54.181,69.85,54.035C70.833,53.89,71.817,54.03,72.8,53.944C73.783,53.858,74.767,53.547,75.75,53.527C76.733,53.508,77.717,53.781,78.7,54.336C79.683,54.89,80.667,55.726,81.65,55.987C82.633,56.249,83.617,55.935,84.6,55.878C85.583,55.82,86.567,56.018,87.55,55.906C88.533,55.795,89.517,55.373,90.5,55.208C91.483,55.043,92.467,55.134,93.45,55.083C94.433,55.031,95.417,54.838,96.4,55.056C97.383,55.274,98.367,55.903,99.35,55.887C100.333,55.872,101.317,55.213,102.3,54.749C103.283,54.286,104.267,54.017,105.25,53.727C106.233,53.437,107.217,53.125,108.2,51.951C109.183,50.777,110.167,48.741,111.15,47.583C112.133,46.424,113.117,46.143,114.1,45.695C115.083,45.247,116.067,44.633,117.05,44.677C118.033,44.722,119.017,45.426,120,45.701C120.983,45.977,121.967,45.825,122.95,45.9C123.933,45.976,124.917,46.28,125.9,45.609C126.883,44.938,127.867,43.293,128.85,42.661C129.833,42.028,130.817,42.408,131.8,42.123C132.783,41.838,133.767,40.887,134.75,40.161C135.733,39.434,136.717,38.933,137.7,38.822C138.683,38.711,139.667,38.991,140.65,39.128C141.633,39.265,142.617,39.258,143.6,39.436C144.583,39.613,145.567,39.974,146.55,40.762C147.533,41.55,148.517,42.766,149.5,43.452C150.483,44.138,151.467,44.295,152.45,44.145C153.433,43.995,154.417,43.538,155.4,43.494C156.383,43.449,157.367,43.817,158.35,43.893C159.333,43.969,160.317,43.754,161.3,43.705C162.283,43.657,163.267,43.775,164.25,43.664C165.233,43.553,166.217,43.212,167.2,42.756C168.183,42.3,169.167,41.729,170.15,41.095C171.133,40.461,172.117,39.764,173.1,39.281C174.083,38.798,175.067,38.53,176.05,38.079C177.033,37.627,178.017,36.993,179,36.099C179.983,35.205,180.967,34.052,181.95,32.727C182.933,31.402,183.917,29.906,184.9,28.772C185.883,27.637,186.867,26.865,187.85,26.831C188.833,26.798,189.817,27.503,190.8,27.405C191.783,27.306,192.767,26.404,193.75,25.864C194.733,25.323,195.717,25.145,196.7,25.581C197.683,26.016,198.667,27.067,199.65,25.55C200.633,24.034,201.617,19.952,202.6,17.646C203.583,15.34,204.567,14.812,205.55,14.521C206.533,14.231,207.517,14.18,208.5,13.806C209.483,13.432,210.467,12.735,211.45,11.092C212.433,9.449,213.417,6.86,214.4,5.187C215.383,3.513,216.367,2.757,217.35,2.765C218.333,2.773,219.317,3.546,220.3,3.678C221.283,3.81,222.267,3.302,223.25,3.168C224.233,3.034,225.217,3.274,226.2,3.453C227.183,3.633,228.167,3.751,229.15,3.662C230.133,3.572,231.117,3.275,232.1,3.075C233.083,2.876,234.067,2.773,234.558,2.722L235.05,2.671L235.05,60L234.558,60C234.067,60,233.083,60,232.1,60C231.117,60,230.133,60,229.15,60C228.167,60,227.183,60,226.2,60C225.217,60,224.233,60,223.25,60C222.267,60,221.283,60,220.3,60C219.317,60,218.333,60,217.35,60C216.367,60,215.383,60,214.4,60C213.417,60,212.433,60,211.45,60C210.467,60,209.483,60,208.5,60C207.517,60,206.533,60,205.55,60C204.567,60,203.583,60,202.6,60C201.617,60,200.633,60,199.65,60C198.667,60,197.683,60,196.7,60C195.717,60,194.733,60,193.75,60C192.767,60,191.783,60,190.8,60C189.817,60,188.833,60,187.85,60C186.867,60,185.883,60,184.9,60C183.917,60,182.933,60,181.95,60C180.967,60,179.983,60,179,60C178.017,60,177.033,60,176.05,60C175.067,60,174.083,60,173.1,60C172.117,60,171.133,60,170.15,60C169.167,60,168.183,60,167.2,60C166.217,60,165.233,60,164.25,60C163.267,60,162.283,60,161.3,60C160.317,60,159.333,60,158.35,60C157.367,60,156.383,60,155.4,60C154.417,60,153.433,60,152.45,60C151.467,60,150.483,60,149.5,60C148.517,60,147.533,60,146.55,60C145.567,60,144.583,60,143.6,60C142.617,60,141.633,60,140.65,60C139.667,60,138.683,60,137.7,60C136.717,60,135.733,60,134.75,60C133.767,60,132.783,60,131.8,60C130.817,60,129.833,60,128.85,60C127.867,60,126.883,60,125.9,60C124.917,60,123.933,60,122.95,60C121.967,60,120.983,60,120,60C119.017,60,118.033,60,117.05,60C116.067,60,115.083,60,114.1,60C113.117,60,112.133,60,111.15,60C110.167,60,109.183,60,108.2,60C107.217,60,106.233,60,105.25,60C104.267,60,103.283,60,102.3,60C101.317,60,100.333,60,99.35,60C98.367,60,97.383,60,96.4,60C95.417,60,94.433,60,93.45,60C92.467,60,91.483,60,90.5,60C89.517,60,88.533,60,87.55,60C86.567,60,85.583,60,84.6,60C83.617,60,82.633,60,81.65,60C80.667,60,79.683,60,78.7,60C77.717,60,76.733,60,75.75,60C74.767,60,73.783,60,72.8,60C71.817,60,70.833,60,69.85,60C68.867,60,67.883,60,66.9,60C65.917,60,64.933,60,63.95,60C62.967,60,61.983,60,61,60C60.017,60,59.033,60,58.05,60C57.067,60,56.083,60,55.1,60C54.117,60,53.133,60,52.15,60C51.167,60,50.183,60,49.2,60C48.217,60,47.233,60,46.25,60C45.267,60,44.283,60,43.3,60C42.317,60,41.333,60,40.35,60C39.367,60,38.383,60,37.4,60C36.417,60,35.433,60,34.45,60C33.467,60,32.483,60,31.5,60C30.517,60,29.533,60,28.55,60C27.567,60,26.583,60,25.6,60C24.617,60,23.633,60,22.65,60C21.667,60,20.683,60,19.7,60C18.717,60,17.733,60,16.75,60C15.767,60,14.783,60,13.8,60C12.817,60,11.833,60,10.85,60C9.867,60,8.883,60,7.9,60C6.917,60,5.933,60,4.95,60C3.967,60,2.983,60,2.492,60L2,60Z" fill="url(#xjvb3v3eq3)"></path></g></svg>
