<svg xmlns="http://www.w3.org/2000/svg" height="60" width="240"><defs><pattern height="4" id="2u0ugmo2nru" patternUnits="userSpaceOnUse" width="4" x="0" y="0"><g><rect fill="transparent" height="4" width="4"></rect><circle cx="1" cy="1" fill="#CF202F" fill-opacity="0.2" r="1"></circle></g></pattern></defs><g><path d="M2,12.629L2.492,12.558C2.983,12.487,3.967,12.346,4.95,12.634C5.933,12.923,6.917,13.642,7.9,14.292C8.883,14.942,9.867,15.523,10.85,15.193C11.833,14.863,12.817,13.622,13.8,12.534C14.783,11.445,15.767,10.509,16.75,10.153C17.733,9.797,18.717,10.02,19.7,12.001C20.683,13.982,21.667,17.72,22.65,19.132C23.633,20.544,24.617,19.629,25.6,19.961C26.583,20.293,27.567,21.872,28.55,22.182C29.533,22.493,30.517,21.536,31.5,21.545C32.483,21.555,33.467,22.531,34.45,24.799C35.433,27.067,36.417,30.627,37.4,33.471C38.383,36.316,39.367,38.446,40.35,38.052C41.333,37.658,42.317,34.741,43.3,33.629C44.283,32.517,45.267,33.211,46.25,32.603C47.233,31.994,48.217,30.082,49.2,29.325C50.183,28.567,51.167,28.963,52.15,28.468C53.133,27.972,54.117,26.586,55.1,26.891C56.083,27.196,57.067,29.192,58.05,29.385C59.033,29.579,60.017,27.968,61,27.971C61.983,27.973,62.967,29.589,63.95,31.008C64.933,32.427,65.917,33.651,66.9,34.21C67.883,34.768,68.867,34.662,69.85,33.835C70.833,33.009,71.817,31.464,72.8,30.41C73.783,29.357,74.767,28.796,75.75,29.094C76.733,29.392,77.717,30.55,78.7,30.099C79.683,29.649,80.667,27.591,81.65,26.351C82.633,25.111,83.617,24.69,84.6,25.766C85.583,26.842,86.567,29.415,87.55,31.137C88.533,32.858,89.517,33.728,90.5,33.606C91.483,33.484,92.467,32.369,93.45,32.863C94.433,33.356,95.417,35.458,96.4,35.18C97.383,34.901,98.367,32.243,99.35,31.029C100.333,29.815,101.317,30.045,102.3,31.371C103.283,32.697,104.267,35.12,105.25,35.934C106.233,36.747,107.217,35.952,108.2,37.779C109.183,39.607,110.167,44.057,111.15,45.476C112.133,46.895,113.117,45.283,114.1,44.679C115.083,44.075,116.067,44.478,117.05,44.865C118.033,45.251,119.017,45.621,120,45.288C120.983,44.955,121.967,43.919,122.95,44.138C123.933,44.356,124.917,45.829,125.9,48.348C126.883,50.867,127.867,54.434,128.85,54.806C129.833,55.179,130.817,52.358,131.8,49.226C132.783,46.095,133.767,42.652,134.75,40.773C135.733,38.894,136.717,38.579,137.7,38.53C138.683,38.481,139.667,38.699,140.65,39.623C141.633,40.546,142.617,42.175,143.6,42.438C144.583,42.701,145.567,41.598,146.55,39.54C147.533,37.482,148.517,34.47,149.5,33.345C150.483,32.22,151.467,32.983,152.45,33.348C153.433,33.712,154.417,33.679,155.4,34.206C156.383,34.733,157.367,35.82,158.35,35.965C159.333,36.109,160.317,35.311,161.3,33.405C162.283,31.499,163.267,28.486,164.25,27.185C165.233,25.884,166.217,26.295,167.2,24.736C168.183,23.177,169.167,19.647,170.15,17.787C171.133,15.928,172.117,15.739,173.1,16.144C174.083,16.548,175.067,17.546,176.05,17.182C177.033,16.818,178.017,15.093,179,12.336C179.983,9.579,180.967,5.789,181.95,5.602C182.933,5.414,183.917,8.828,184.9,12.585C185.883,16.343,186.867,20.443,187.85,21.388C188.833,22.334,189.817,20.126,190.8,20.746C191.783,21.366,192.767,24.815,193.75,26.198C194.733,27.581,195.717,26.898,196.7,29.571C197.683,32.244,198.667,38.274,199.65,39.004C200.633,39.735,201.617,35.167,202.6,33.234C203.583,31.301,204.567,32.004,205.55,34.074C206.533,36.143,207.517,39.58,208.5,41.778C209.483,43.976,210.467,44.936,211.45,46.156C212.433,47.377,213.417,48.858,214.4,47.037C215.383,45.215,216.367,40.09,217.35,37.486C218.333,34.882,219.317,34.799,220.3,36.349C221.283,37.9,222.267,41.084,223.25,41.57C224.233,42.057,225.217,39.845,226.2,38.485C227.183,37.125,228.167,36.618,229.15,37.25C230.133,37.881,231.117,39.652,232.1,40.56C233.083,41.468,234.067,41.513,234.558,41.535L235.05,41.558" fill="transparent" stroke="#CF202F" stroke-linecap="round" stroke-linejoin="round" stroke-width="2"></path><path d="M2,12.629L2.492,12.558C2.983,12.487,3.967,12.346,4.95,12.634C5.933,12.923,6.917,13.642,7.9,14.292C8.883,14.942,9.867,15.523,10.85,15.193C11.833,14.863,12.817,13.622,13.8,12.534C14.783,11.445,15.767,10.509,16.75,10.153C17.733,9.797,18.717,10.02,19.7,12.001C20.683,13.982,21.667,17.72,22.65,19.132C23.633,20.544,24.617,19.629,25.6,19.961C26.583,20.293,27.567,21.872,28.55,22.182C29.533,22.493,30.517,21.536,31.5,21.545C32.483,21.555,33.467,22.531,34.45,24.799C35.433,27.067,36.417,30.627,37.4,33.471C38.383,36.316,39.367,38.446,40.35,38.052C41.333,37.658,42.317,34.741,43.3,33.629C44.283,32.517,45.267,33.211,46.25,32.603C47.233,31.994,48.217,30.082,49.2,29.325C50.183,28.567,51.167,28.963,52.15,28.468C53.133,27.972,54.117,26.586,55.1,26.891C56.083,27.196,57.067,29.192,58.05,29.385C59.033,29.579,60.017,27.968,61,27.971C61.983,27.973,62.967,29.589,63.95,31.008C64.933,32.427,65.917,33.651,66.9,34.21C67.883,34.768,68.867,34.662,69.85,33.835C70.833,33.009,71.817,31.464,72.8,30.41C73.783,29.357,74.767,28.796,75.75,29.094C76.733,29.392,77.717,30.55,78.7,30.099C79.683,29.649,80.667,27.591,81.65,26.351C82.633,25.111,83.617,24.69,84.6,25.766C85.583,26.842,86.567,29.415,87.55,31.137C88.533,32.858,89.517,33.728,90.5,33.606C91.483,33.484,92.467,32.369,93.45,32.863C94.433,33.356,95.417,35.458,96.4,35.18C97.383,34.901,98.367,32.243,99.35,31.029C100.333,29.815,101.317,30.045,102.3,31.371C103.283,32.697,104.267,35.12,105.25,35.934C106.233,36.747,107.217,35.952,108.2,37.779C109.183,39.607,110.167,44.057,111.15,45.476C112.133,46.895,113.117,45.283,114.1,44.679C115.083,44.075,116.067,44.478,117.05,44.865C118.033,45.251,119.017,45.621,120,45.288C120.983,44.955,121.967,43.919,122.95,44.138C123.933,44.356,124.917,45.829,125.9,48.348C126.883,50.867,127.867,54.434,128.85,54.806C129.833,55.179,130.817,52.358,131.8,49.226C132.783,46.095,133.767,42.652,134.75,40.773C135.733,38.894,136.717,38.579,137.7,38.53C138.683,38.481,139.667,38.699,140.65,39.623C141.633,40.546,142.617,42.175,143.6,42.438C144.583,42.701,145.567,41.598,146.55,39.54C147.533,37.482,148.517,34.47,149.5,33.345C150.483,32.22,151.467,32.983,152.45,33.348C153.433,33.712,154.417,33.679,155.4,34.206C156.383,34.733,157.367,35.82,158.35,35.965C159.333,36.109,160.317,35.311,161.3,33.405C162.283,31.499,163.267,28.486,164.25,27.185C165.233,25.884,166.217,26.295,167.2,24.736C168.183,23.177,169.167,19.647,170.15,17.787C171.133,15.928,172.117,15.739,173.1,16.144C174.083,16.548,175.067,17.546,176.05,17.182C177.033,16.818,178.017,15.093,179,12.336C179.983,9.579,180.967,5.789,181.95,5.602C182.933,5.414,183.917,8.828,184.9,12.585C185.883,16.343,186.867,20.443,187.85,21.388C188.833,22.334,189.817,20.126,190.8,20.746C191.783,21.366,192.767,24.815,193.75,26.198C194.733,27.581,195.717,26.898,196.7,29.571C197.683,32.244,198.667,38.274,199.65,39.004C200.633,39.735,201.617,35.167,202.6,33.234C203.583,31.301,204.567,32.004,205.55,34.074C206.533,36.143,207.517,39.58,208.5,41.778C209.483,43.976,210.467,44.936,211.45,46.156C212.433,47.377,213.417,48.858,214.4,47.037C215.383,45.215,216.367,40.09,217.35,37.486C218.333,34.882,219.317,34.799,220.3,36.349C221.283,37.9,222.267,41.084,223.25,41.57C224.233,42.057,225.217,39.845,226.2,38.485C227.183,37.125,228.167,36.618,229.15,37.25C230.133,37.881,231.117,39.652,232.1,40.56C233.083,41.468,234.067,41.513,234.558,41.535L235.05,41.558L235.05,60L234.558,60C234.067,60,233.083,60,232.1,60C231.117,60,230.133,60,229.15,60C228.167,60,227.183,60,226.2,60C225.217,60,224.233,60,223.25,60C222.267,60,221.283,60,220.3,60C219.317,60,218.333,60,217.35,60C216.367,60,215.383,60,214.4,60C213.417,60,212.433,60,211.45,60C210.467,60,209.483,60,208.5,60C207.517,60,206.533,60,205.55,60C204.567,60,203.583,60,202.6,60C201.617,60,200.633,60,199.65,60C198.667,60,197.683,60,196.7,60C195.717,60,194.733,60,193.75,60C192.767,60,191.783,60,190.8,60C189.817,60,188.833,60,187.85,60C186.867,60,185.883,60,184.9,60C183.917,60,182.933,60,181.95,60C180.967,60,179.983,60,179,60C178.017,60,177.033,60,176.05,60C175.067,60,174.083,60,173.1,60C172.117,60,171.133,60,170.15,60C169.167,60,168.183,60,167.2,60C166.217,60,165.233,60,164.25,60C163.267,60,162.283,60,161.3,60C160.317,60,159.333,60,158.35,60C157.367,60,156.383,60,155.4,60C154.417,60,153.433,60,152.45,60C151.467,60,150.483,60,149.5,60C148.517,60,147.533,60,146.55,60C145.567,60,144.583,60,143.6,60C142.617,60,141.633,60,140.65,60C139.667,60,138.683,60,137.7,60C136.717,60,135.733,60,134.75,60C133.767,60,132.783,60,131.8,60C130.817,60,129.833,60,128.85,60C127.867,60,126.883,60,125.9,60C124.917,60,123.933,60,122.95,60C121.967,60,120.983,60,120,60C119.017,60,118.033,60,117.05,60C116.067,60,115.083,60,114.1,60C113.117,60,112.133,60,111.15,60C110.167,60,109.183,60,108.2,60C107.217,60,106.233,60,105.25,60C104.267,60,103.283,60,102.3,60C101.317,60,100.333,60,99.35,60C98.367,60,97.383,60,96.4,60C95.417,60,94.433,60,93.45,60C92.467,60,91.483,60,90.5,60C89.517,60,88.533,60,87.55,60C86.567,60,85.583,60,84.6,60C83.617,60,82.633,60,81.65,60C80.667,60,79.683,60,78.7,60C77.717,60,76.733,60,75.75,60C74.767,60,73.783,60,72.8,60C71.817,60,70.833,60,69.85,60C68.867,60,67.883,60,66.9,60C65.917,60,64.933,60,63.95,60C62.967,60,61.983,60,61,60C60.017,60,59.033,60,58.05,60C57.067,60,56.083,60,55.1,60C54.117,60,53.133,60,52.15,60C51.167,60,50.183,60,49.2,60C48.217,60,47.233,60,46.25,60C45.267,60,44.283,60,43.3,60C42.317,60,41.333,60,40.35,60C39.367,60,38.383,60,37.4,60C36.417,60,35.433,60,34.45,60C33.467,60,32.483,60,31.5,60C30.517,60,29.533,60,28.55,60C27.567,60,26.583,60,25.6,60C24.617,60,23.633,60,22.65,60C21.667,60,20.683,60,19.7,60C18.717,60,17.733,60,16.75,60C15.767,60,14.783,60,13.8,60C12.817,60,11.833,60,10.85,60C9.867,60,8.883,60,7.9,60C6.917,60,5.933,60,4.95,60C3.967,60,2.983,60,2.492,60L2,60Z" fill="url(#2u0ugmo2nru)"></path></g></svg>
