<svg xmlns="http://www.w3.org/2000/svg" height="60" width="240"><defs><pattern height="4" id="7cnvd7m8tdq" patternUnits="userSpaceOnUse" width="4" x="0" y="0"><g><rect fill="transparent" height="4" width="4"></rect><circle cx="1" cy="1" fill="#CF202F" fill-opacity="0.2" r="1"></circle></g></pattern></defs><g><path d="M2,2.101L2.492,2.084C2.983,2.067,3.967,2.034,4.95,2.323C5.933,2.612,6.917,3.223,7.9,3.412C8.883,3.601,9.867,3.367,10.85,3.75C11.833,4.134,12.817,5.134,13.8,5.489C14.783,5.844,15.767,5.552,16.75,5.896C17.733,6.239,18.717,7.217,19.7,7.656C20.683,8.095,21.667,7.995,22.65,8.29C23.633,8.586,24.617,9.277,25.6,10.368C26.583,11.46,27.567,12.951,28.55,13.641C29.533,14.33,30.517,14.216,31.5,14.149C32.483,14.081,33.467,14.06,34.45,14.955C35.433,15.85,36.417,17.661,37.4,18.932C38.383,20.202,39.367,20.931,40.35,21.171C41.333,21.411,42.317,21.162,43.3,20.904C44.283,20.646,45.267,20.379,46.25,20.958C47.233,21.537,48.217,22.962,49.2,23.961C50.183,24.961,51.167,25.534,52.15,25.565C53.133,25.596,54.117,25.084,55.1,24.901C56.083,24.719,57.067,24.867,58.05,25.558C59.033,26.249,60.017,27.483,61,27.776C61.983,28.069,62.967,27.422,63.95,27.635C64.933,27.847,65.917,28.92,66.9,29.217C67.883,29.514,68.867,29.036,69.85,29.332C70.833,29.628,71.817,30.699,72.8,31.562C73.783,32.425,74.767,33.079,75.75,32.924C76.733,32.77,77.717,31.807,78.7,31.618C79.683,31.429,80.667,32.014,81.65,31.998C82.633,31.983,83.617,31.366,84.6,31.125C85.583,30.884,86.567,31.02,87.55,31.638C88.533,32.255,89.517,33.355,90.5,33.602C91.483,33.85,92.467,33.245,93.45,33.276C94.433,33.307,95.417,33.972,96.4,34.201C97.383,34.43,98.367,34.223,99.35,34.281C100.333,34.34,101.317,34.665,102.3,35.332C103.283,35.998,104.267,37.005,105.25,37.47C106.233,37.936,107.217,37.86,108.2,38.092C109.183,38.324,110.167,38.865,111.15,38.867C112.133,38.869,113.117,38.331,114.1,38.29C115.083,38.249,116.067,38.704,117.05,39.118C118.033,39.532,119.017,39.903,120,39.805C120.983,39.706,121.967,39.137,122.95,39.536C123.933,39.935,124.917,41.302,125.9,41.87C126.883,42.437,127.867,42.206,128.85,42.507C129.833,42.809,130.817,43.642,131.8,44.439C132.783,45.235,133.767,45.995,134.75,46.627C135.733,47.26,136.717,47.766,137.7,48.459C138.683,49.151,139.667,50.031,140.65,50.877C141.633,51.722,142.617,52.535,143.6,52.927C144.583,53.319,145.567,53.291,146.55,53.621C147.533,53.952,148.517,54.642,149.5,54.985C150.483,55.329,151.467,55.327,152.45,55.534C153.433,55.74,154.417,56.155,155.4,56.508C156.383,56.86,157.367,57.151,158.35,57.389C159.333,57.627,160.317,57.814,161.3,55.424C162.283,53.035,163.267,48.07,164.25,45.286C165.233,42.502,166.217,41.899,167.2,41.307C168.183,40.715,169.167,40.134,170.15,39.966C171.133,39.797,172.117,40.041,173.1,40.107C174.083,40.173,175.067,40.061,176.05,39.741C177.033,39.422,178.017,38.893,179,38.745C179.983,38.597,180.967,38.83,181.95,38.848C182.933,38.866,183.917,38.669,184.9,38.673C185.883,38.676,186.867,38.88,187.85,38.654C188.833,38.428,189.817,37.773,190.8,37.431C191.783,37.09,192.767,37.062,193.75,37.224C194.733,37.386,195.717,37.738,196.7,37.758C197.683,37.777,198.667,37.464,199.65,37.397C200.633,37.329,201.617,37.507,202.6,37.414C203.583,37.322,204.567,36.96,205.55,36.889C206.533,36.818,207.517,37.038,208.5,36.795C209.483,36.551,210.467,35.843,211.45,35.291C212.433,34.739,213.417,34.342,214.4,34.345C215.383,34.348,216.367,34.752,217.35,34.788C218.333,34.824,219.317,34.493,220.3,34.661C221.283,34.829,222.267,35.495,223.25,35.912C224.233,36.329,225.217,36.496,226.2,36.43C227.183,36.364,228.167,36.065,229.15,36.056C230.133,36.047,231.117,36.328,232.1,36.029C233.083,35.73,234.067,34.85,234.558,34.411L235.05,33.971" fill="transparent" stroke="#CF202F" stroke-linecap="round" stroke-linejoin="round" stroke-width="2"></path><path d="M2,2.101L2.492,2.084C2.983,2.067,3.967,2.034,4.95,2.323C5.933,2.612,6.917,3.223,7.9,3.412C8.883,3.601,9.867,3.367,10.85,3.75C11.833,4.134,12.817,5.134,13.8,5.489C14.783,5.844,15.767,5.552,16.75,5.896C17.733,6.239,18.717,7.217,19.7,7.656C20.683,8.095,21.667,7.995,22.65,8.29C23.633,8.586,24.617,9.277,25.6,10.368C26.583,11.46,27.567,12.951,28.55,13.641C29.533,14.33,30.517,14.216,31.5,14.149C32.483,14.081,33.467,14.06,34.45,14.955C35.433,15.85,36.417,17.661,37.4,18.932C38.383,20.202,39.367,20.931,40.35,21.171C41.333,21.411,42.317,21.162,43.3,20.904C44.283,20.646,45.267,20.379,46.25,20.958C47.233,21.537,48.217,22.962,49.2,23.961C50.183,24.961,51.167,25.534,52.15,25.565C53.133,25.596,54.117,25.084,55.1,24.901C56.083,24.719,57.067,24.867,58.05,25.558C59.033,26.249,60.017,27.483,61,27.776C61.983,28.069,62.967,27.422,63.95,27.635C64.933,27.847,65.917,28.92,66.9,29.217C67.883,29.514,68.867,29.036,69.85,29.332C70.833,29.628,71.817,30.699,72.8,31.562C73.783,32.425,74.767,33.079,75.75,32.924C76.733,32.77,77.717,31.807,78.7,31.618C79.683,31.429,80.667,32.014,81.65,31.998C82.633,31.983,83.617,31.366,84.6,31.125C85.583,30.884,86.567,31.02,87.55,31.638C88.533,32.255,89.517,33.355,90.5,33.602C91.483,33.85,92.467,33.245,93.45,33.276C94.433,33.307,95.417,33.972,96.4,34.201C97.383,34.43,98.367,34.223,99.35,34.281C100.333,34.34,101.317,34.665,102.3,35.332C103.283,35.998,104.267,37.005,105.25,37.47C106.233,37.936,107.217,37.86,108.2,38.092C109.183,38.324,110.167,38.865,111.15,38.867C112.133,38.869,113.117,38.331,114.1,38.29C115.083,38.249,116.067,38.704,117.05,39.118C118.033,39.532,119.017,39.903,120,39.805C120.983,39.706,121.967,39.137,122.95,39.536C123.933,39.935,124.917,41.302,125.9,41.87C126.883,42.437,127.867,42.206,128.85,42.507C129.833,42.809,130.817,43.642,131.8,44.439C132.783,45.235,133.767,45.995,134.75,46.627C135.733,47.26,136.717,47.766,137.7,48.459C138.683,49.151,139.667,50.031,140.65,50.877C141.633,51.722,142.617,52.535,143.6,52.927C144.583,53.319,145.567,53.291,146.55,53.621C147.533,53.952,148.517,54.642,149.5,54.985C150.483,55.329,151.467,55.327,152.45,55.534C153.433,55.74,154.417,56.155,155.4,56.508C156.383,56.86,157.367,57.151,158.35,57.389C159.333,57.627,160.317,57.814,161.3,55.424C162.283,53.035,163.267,48.07,164.25,45.286C165.233,42.502,166.217,41.899,167.2,41.307C168.183,40.715,169.167,40.134,170.15,39.966C171.133,39.797,172.117,40.041,173.1,40.107C174.083,40.173,175.067,40.061,176.05,39.741C177.033,39.422,178.017,38.893,179,38.745C179.983,38.597,180.967,38.83,181.95,38.848C182.933,38.866,183.917,38.669,184.9,38.673C185.883,38.676,186.867,38.88,187.85,38.654C188.833,38.428,189.817,37.773,190.8,37.431C191.783,37.09,192.767,37.062,193.75,37.224C194.733,37.386,195.717,37.738,196.7,37.758C197.683,37.777,198.667,37.464,199.65,37.397C200.633,37.329,201.617,37.507,202.6,37.414C203.583,37.322,204.567,36.96,205.55,36.889C206.533,36.818,207.517,37.038,208.5,36.795C209.483,36.551,210.467,35.843,211.45,35.291C212.433,34.739,213.417,34.342,214.4,34.345C215.383,34.348,216.367,34.752,217.35,34.788C218.333,34.824,219.317,34.493,220.3,34.661C221.283,34.829,222.267,35.495,223.25,35.912C224.233,36.329,225.217,36.496,226.2,36.43C227.183,36.364,228.167,36.065,229.15,36.056C230.133,36.047,231.117,36.328,232.1,36.029C233.083,35.73,234.067,34.85,234.558,34.411L235.05,33.971L235.05,60L234.558,60C234.067,60,233.083,60,232.1,60C231.117,60,230.133,60,229.15,60C228.167,60,227.183,60,226.2,60C225.217,60,224.233,60,223.25,60C222.267,60,221.283,60,220.3,60C219.317,60,218.333,60,217.35,60C216.367,60,215.383,60,214.4,60C213.417,60,212.433,60,211.45,60C210.467,60,209.483,60,208.5,60C207.517,60,206.533,60,205.55,60C204.567,60,203.583,60,202.6,60C201.617,60,200.633,60,199.65,60C198.667,60,197.683,60,196.7,60C195.717,60,194.733,60,193.75,60C192.767,60,191.783,60,190.8,60C189.817,60,188.833,60,187.85,60C186.867,60,185.883,60,184.9,60C183.917,60,182.933,60,181.95,60C180.967,60,179.983,60,179,60C178.017,60,177.033,60,176.05,60C175.067,60,174.083,60,173.1,60C172.117,60,171.133,60,170.15,60C169.167,60,168.183,60,167.2,60C166.217,60,165.233,60,164.25,60C163.267,60,162.283,60,161.3,60C160.317,60,159.333,60,158.35,60C157.367,60,156.383,60,155.4,60C154.417,60,153.433,60,152.45,60C151.467,60,150.483,60,149.5,60C148.517,60,147.533,60,146.55,60C145.567,60,144.583,60,143.6,60C142.617,60,141.633,60,140.65,60C139.667,60,138.683,60,137.7,60C136.717,60,135.733,60,134.75,60C133.767,60,132.783,60,131.8,60C130.817,60,129.833,60,128.85,60C127.867,60,126.883,60,125.9,60C124.917,60,123.933,60,122.95,60C121.967,60,120.983,60,120,60C119.017,60,118.033,60,117.05,60C116.067,60,115.083,60,114.1,60C113.117,60,112.133,60,111.15,60C110.167,60,109.183,60,108.2,60C107.217,60,106.233,60,105.25,60C104.267,60,103.283,60,102.3,60C101.317,60,100.333,60,99.35,60C98.367,60,97.383,60,96.4,60C95.417,60,94.433,60,93.45,60C92.467,60,91.483,60,90.5,60C89.517,60,88.533,60,87.55,60C86.567,60,85.583,60,84.6,60C83.617,60,82.633,60,81.65,60C80.667,60,79.683,60,78.7,60C77.717,60,76.733,60,75.75,60C74.767,60,73.783,60,72.8,60C71.817,60,70.833,60,69.85,60C68.867,60,67.883,60,66.9,60C65.917,60,64.933,60,63.95,60C62.967,60,61.983,60,61,60C60.017,60,59.033,60,58.05,60C57.067,60,56.083,60,55.1,60C54.117,60,53.133,60,52.15,60C51.167,60,50.183,60,49.2,60C48.217,60,47.233,60,46.25,60C45.267,60,44.283,60,43.3,60C42.317,60,41.333,60,40.35,60C39.367,60,38.383,60,37.4,60C36.417,60,35.433,60,34.45,60C33.467,60,32.483,60,31.5,60C30.517,60,29.533,60,28.55,60C27.567,60,26.583,60,25.6,60C24.617,60,23.633,60,22.65,60C21.667,60,20.683,60,19.7,60C18.717,60,17.733,60,16.75,60C15.767,60,14.783,60,13.8,60C12.817,60,11.833,60,10.85,60C9.867,60,8.883,60,7.9,60C6.917,60,5.933,60,4.95,60C3.967,60,2.983,60,2.492,60L2,60Z" fill="url(#7cnvd7m8tdq)"></path></g></svg>
